<svg width="41" height="35" viewBox="0 0 41 35" fill="none" xmlns="http://www.w3.org/2000/svg">
<g clip-path="url(#clip0_598_40)">
<path fill-rule="evenodd" clip-rule="evenodd" d="M25.5 30C26.8132 30 28.1136 29.7413 29.3268 29.2388C30.5401 28.7362 31.6425 27.9997 32.5711 27.0711C33.4997 26.1425 34.2362 25.0401 34.7388 23.8268C35.2413 22.6136 35.5 21.3132 35.5 20C35.5 16.0218 33.9196 12.2064 31.1066 9.3934C28.2936 6.58035 24.4782 5 20.5 5C16.5218 5 12.7064 6.58035 9.8934 9.3934C7.08035 12.2064 5.5 16.0218 5.5 20C5.5 21.3132 5.75866 22.6136 6.2612 23.8268C6.76375 25.0401 7.50035 26.1425 8.42893 27.0711C9.35752 27.9997 10.4599 28.7362 11.6732 29.2388C12.8864 29.7413 14.1868 30 15.5 30H25.5ZM20.5 9C17.5826 9 14.7847 10.1589 12.7218 12.2218C10.6589 14.2847 9.5 17.0826 9.5 20C9.5 20.7879 9.65519 21.5681 9.95672 22.2961C10.2583 23.0241 10.7002 23.6855 11.2574 24.2426C11.8145 24.7998 12.4759 25.2417 13.2039 25.5433C13.9319 25.8448 14.7121 26 15.5 26H25.5C26.2879 26 27.0681 25.8448 27.7961 25.5433C28.5241 25.2417 29.1855 24.7998 29.7426 24.2426C30.2998 23.6855 30.7417 23.0241 31.0433 22.2961C31.3448 21.5681 31.5 20.7879 31.5 20C31.5 17.0826 30.3411 14.2847 28.2782 12.2218C26.2153 10.1589 23.4174 9 20.5 9Z" fill="#3064E8"/>
<path fill-rule="evenodd" clip-rule="evenodd" d="M13.5 35C11.7928 35 10.1024 34.612 8.52512 33.8582C6.94792 33.1044 5.5148 31.9995 4.30761 30.6066C3.10047 29.2137 2.14289 27.5602 1.48957 25.7403C0.836257 23.9204 0.5 21.9698 0.5 20C0.5 14.6957 2.60714 9.60859 6.35787 5.85786C10.1086 2.10714 15.1957 0 20.5 0C25.8043 0 30.8914 2.10714 34.6421 5.85786C38.3929 9.60859 40.5 14.6957 40.5 20C40.5 21.9698 40.1637 23.9204 39.5104 25.7403C38.8571 27.5602 37.8995 29.2137 36.6924 30.6066C35.4852 31.9995 34.0521 33.1044 32.4749 33.8582C30.8976 34.612 29.2072 35 27.5 35H13.5ZM9.18629 8.68629C12.1869 5.68571 16.2565 4 20.5 4C24.7435 4 28.8131 5.68571 31.8137 8.68629C34.8143 11.6869 36.5 15.7565 36.5 20C36.5 21.5179 36.2404 23.0107 35.7457 24.3888C35.251 25.7668 34.5376 26.9854 33.6696 27.9869C32.8026 28.9873 31.8045 29.7452 30.75 30.2492C29.6981 30.752 28.5957 31 27.5 31H13.5C12.4043 31 11.3019 30.752 10.25 30.2492C9.19549 29.7452 8.1974 28.9873 7.33037 27.9869C6.46242 26.9854 5.74903 25.7668 5.25433 24.3888C4.75961 23.0107 4.5 21.5179 4.5 20C4.5 15.7565 6.18571 11.6869 9.18629 8.68629Z" fill="#3064E8"/>
<path d="M25.5 25H20.4956C20.1596 24.9997 19.8261 24.9655 19.5 24.899C18.868 24.77 18.2637 24.5192 17.7222 24.1573C16.8999 23.6079 16.259 22.8271 15.8806 21.9134C15.7579 21.6171 15.6645 21.3112 15.601 21C15.4686 20.3515 15.4657 19.6799 15.5961 19.0245C15.789 18.0546 16.2652 17.1637 16.9645 16.4645C17.6637 15.7652 18.5546 15.289 19.5245 15.0961C19.5549 15.09 19.5852 15.0843 19.6156 15.0788C19.9087 15.0262 20.2047 15 20.5 15C21.1535 15 21.8038 15.1281 22.4134 15.3806C23.327 15.759 24.1079 16.3999 24.6573 17.2221C25.2068 18.0444 25.5 19.0111 25.5 20H21.5C21.5 19.8022 21.4414 19.6089 21.3315 19.4444C21.2216 19.28 21.0654 19.1518 20.8827 19.0761C20.7 19.0004 20.4989 18.9806 20.3049 19.0192C20.1109 19.0578 19.9327 19.153 19.7929 19.2929C19.653 19.4327 19.5578 19.6109 19.5192 19.8049C19.4806 19.9989 19.5004 20.2 19.5761 20.3827C19.6518 20.5654 19.78 20.7216 19.9444 20.8315C20.1089 20.9414 20.3022 21 20.5 21H25.5C25.6313 21 25.7614 20.9741 25.8827 20.9239C26.004 20.8736 26.1142 20.8 26.2071 20.7071C26.3 20.6142 26.3736 20.504 26.4239 20.3827C26.4741 20.2614 26.5 20.1313 26.5 20C26.5 18.4087 25.8679 16.8826 24.7426 15.7574C23.6174 14.6321 22.0913 14 20.5 14C20.3274 14 20.1556 14.0074 19.985 14.0221C19.5657 14.0582 19.1535 14.1382 18.755 14.2594C18.3629 14.3785 17.984 14.5376 17.6243 14.734C17.2123 14.959 16.8255 15.233 16.473 15.5522C16.3996 15.6186 16.3277 15.687 16.2574 15.7574C15.7651 16.2496 15.3672 16.8187 15.0753 17.4363C14.9294 17.7451 14.8099 18.066 14.7185 18.3956C14.6139 18.7724 14.5459 19.1604 14.5166 19.5544C14.5056 19.7022 14.5 19.8508 14.5 20C14.5 20.7841 14.6537 21.5646 14.9567 22.2961C15.4109 23.3925 16.1799 24.3295 17.1666 24.9888C17.1722 24.9926 17.1778 24.9963 17.1834 25H15.5C14.8434 25 14.1932 24.8707 13.5866 24.6194C12.98 24.3681 12.4288 23.9998 11.9645 23.5355C11.5002 23.0712 11.1319 22.52 10.8806 21.9134C10.6293 21.3068 10.5 20.6566 10.5 20C10.5 17.3478 11.5536 14.8043 13.4289 12.9289C15.3043 11.0536 17.8478 10 20.5 10C23.1522 10 25.6957 11.0536 27.5711 12.9289C29.4464 14.8043 30.5 17.3478 30.5 20C30.5 20.6566 30.3707 21.3068 30.1194 21.9134C29.8681 22.52 29.4998 23.0712 29.0355 23.5355C28.5712 23.9998 28.02 24.3681 27.4134 24.6194C26.8068 24.8707 26.1566 25 25.5 25Z" fill="#3064E8"/>
</g>
<defs>
<clipPath id="clip0_598_40">
<rect width="40" height="35" fill="white" transform="translate(0.5)"/>
</clipPath>
</defs>
</svg>
