<svg width="54" height="54" viewBox="0 0 54 54" fill="none" xmlns="http://www.w3.org/2000/svg">
<rect width="54" height="54" fill="#E3073C"/>
<path d="M9 6.75C7.75737 6.75 6.75 7.75737 6.75 9V22.5C6.75 23.7427 7.75737 24.75 9 24.75H22.5C23.7427 24.75 24.75 23.7427 24.75 22.5V9C24.75 7.75737 23.7427 6.75 22.5 6.75H9ZM9 29.25C7.75737 29.25 6.75 30.2573 6.75 31.5V45C6.75 46.2427 7.75737 47.25 9 47.25H22.5C23.7427 47.25 24.75 46.2427 24.75 45V31.5C24.75 30.2573 23.7427 29.25 22.5 29.25H9ZM31.5 29.25C30.2573 29.25 29.25 30.2573 29.25 31.5V45C29.25 46.2427 30.2573 47.25 31.5 47.25H45C46.2427 47.25 47.25 46.2427 47.25 45V31.5C47.25 30.2573 46.2427 29.25 45 29.25H31.5ZM36 24.75V18H29.25V13.5H36V6.75H40.5V13.5H47.25V18H40.5V24.75H36Z" fill="white"/>
</svg>
