<svg width="57" height="54" viewBox="0 0 57 54" fill="none" xmlns="http://www.w3.org/2000/svg">
<rect width="56.2041" height="54" fill="#06E07F"/>
<path d="M23.4184 18H32.7857V14.625C32.7857 10.2758 36.4554 6.75 40.9821 6.75C45.5089 6.75 49.1786 10.2758 49.1786 14.625C49.1786 18.9742 45.5089 22.5 40.9821 22.5H37.4694V31.5H40.9821C45.5089 31.5 49.1786 35.0258 49.1786 39.375C49.1786 43.7242 45.5089 47.25 40.9821 47.25C36.4554 47.25 32.7857 43.7242 32.7857 39.375V36H23.4184V39.375C23.4184 43.7242 19.7487 47.25 15.2219 47.25C10.6952 47.25 7.02551 43.7242 7.02551 39.375C7.02551 35.0258 10.6952 31.5 15.2219 31.5H18.7347V22.5H15.2219C10.6952 22.5 7.02551 18.9742 7.02551 14.625C7.02551 10.2758 10.6952 6.75 15.2219 6.75C19.7487 6.75 23.4184 10.2758 23.4184 14.625V18ZM18.7347 18V14.625C18.7347 12.761 17.162 11.25 15.2219 11.25C13.2819 11.25 11.7092 12.761 11.7092 14.625C11.7092 16.489 13.2819 18 15.2219 18H18.7347ZM18.7347 36H15.2219C13.2819 36 11.7092 37.5111 11.7092 39.375C11.7092 41.2389 13.2819 42.75 15.2219 42.75C17.162 42.75 18.7347 41.2389 18.7347 39.375V36ZM37.4694 18H40.9821C42.9221 18 44.4949 16.489 44.4949 14.625C44.4949 12.761 42.9221 11.25 40.9821 11.25C39.0422 11.25 37.4694 12.761 37.4694 14.625V18ZM37.4694 36V39.375C37.4694 41.2389 39.0422 42.75 40.9821 42.75C42.9221 42.75 44.4949 41.2389 44.4949 39.375C44.4949 37.5111 42.9221 36 40.9821 36H37.4694ZM23.4184 22.5V31.5H32.7857V22.5H23.4184Z" fill="white"/>
</svg>
